HIERARCHY
ROOT ui
{
	 OFFSET 0 0 0
	 CHANNELS 3 XPosition YPosition Z Position
	 EndSite
	 {
	 OFFSET 0 -1 0
	 }
}
ROOT li
{
	 OFFSET 0 0 0
	 CHANNELS 3 XPosition YPosition Z Position
	 EndSite
	 {
	 OFFSET 0 -1 0
	 }
}
ROOT ul
{
	 OFFSET 0 0 0
	 CHANNELS 3 XPosition YPosition Z Position
	 EndSite
	 {
	 OFFSET 0 -1 0
	 }
}
ROOT ll
{
	 OFFSET 0 0 0
	 CHANNELS 3 XPosition YPosition Z Position
	 EndSite
	 {
	 OFFSET 0 -1 0
	 }
}
ROOT tt
{
	 OFFSET 0 0 0
	 CHANNELS 3 XPosition YPosition Z Position
	 EndSite
	 {
	 OFFSET 0 -1 0
	 }
}
ROOT tb
{
	 OFFSET 0 0 0
	 CHANNELS 3 XPosition YPosition Z Position
	 EndSite
	 {
	 OFFSET 0 -1 0
	 }
}
ROOT td
{
	 OFFSET 0 0 0
	 CHANNELS 3 XPosition YPosition Z Position
	 EndSite
	 {
	 OFFSET 0 -1 0
	 }
}
ROOT v
{
	 OFFSET 0 0 0
	 CHANNELS 3 XPosition YPosition Z Position
	 EndSite
	 {
	 OFFSET 0 -1 0
	 }
}
ROOT bn
{
	 OFFSET 0 0 0
	 CHANNELS 3 XPosition YPosition Z Position
	 EndSite
	 {
	 OFFSET 0 -1 0
	 }
}
MOTION
Frames: 18
Frame Time: 0.002
-9.076070189476014E-4	-9.047170281410217E-4	0		0.49741043090820314	-2.3821533203125	0		-1.0463345947265625	-0.0123701753616333	0		-0.5628895874023437	-2.2342958984375	0		1.1097252197265626	-0.8958950805664062	0		2.6096455078125	-0.10020655059814453	0		4.00419384765625	0.27722232055664064	0		5.5760068359375	0.28066107177734373	0		-0.20431546020507813	5.93623681640625	0		
-0.007318563938140869	0.003789581060409546	0		0.506631591796875	-2.3917900390625	0		-1.0468455810546875	-0.01275382137298584	0		-0.5614448852539062	-2.2327373046875	0		1.10918115234375	-0.8963595581054687	0		2.630969482421875	-0.10915866088867188	0		4.015868408203125	0.2854377136230469	0		5.575640625	0.2795749206542969	0		-0.20460348510742188	5.93582177734375	0		
0.0011297110319137573	0.0011892060041427612	0		0.4670630187988281	-2.390462646484375	0		-1.03922021484375	-0.006299207210540772	0		-0.5471168212890625	-2.23743603515625	0		1.113755859375	-0.89092236328125	0		2.619733154296875	-0.09546175384521484	0		4.00319287109375	0.2761343994140625	0		5.5857880859375	0.2555079040527344	0		-0.19068858337402345	5.946126953125	0		
0.02072248649597168	0.005374889850616455	0		0.5115913696289063	-2.385786376953125	0		-1.0397225341796874	-0.006683043956756592	0		-0.5554743041992187	-2.22668017578125	0		1.1153028564453125	-0.8874178466796875	0		2.62994921875	-0.11018142700195313	0		4.014875244140625	0.28436782836914065	0		5.58424072265625	0.2839423828125	0		-0.19099356079101562	5.94571533203125	0		
-0.004758133888244629	0.005460993766784668	0		0.5089747619628906	-2.389169677734375	0		-1.0442669677734375	-0.009979743957519532	0		-0.5241323852539063	-2.232703369140625	0		1.10965283203125	-0.894759033203125	0		2.6187392578125	-0.0964537353515625	0		4.0092607421875	0.27696026611328123	0		5.5768037109375	0.2884819030761719	0		-0.19129978942871093	5.94531298828125	0		
0.01669524955749512	6.330860257148743E-4	0		0.5303045043945313	-2.3970107421875	0		-1.048808837890625	-0.01426479434967041	0		-0.5636873779296875	-2.234309326171875	0		1.1091656494140625	-0.8951818237304687	0		2.624133544921875	-0.10403445434570313	0		4.001984619140625	0.28561541748046876	0		5.580609375	0.27004605102539064	0		-0.19160366821289063	5.94492529296875	0		
-7.578700184822083E-4	-4.049679934978485E-4	0		0.477941650390625	-2.390367919921875	0		-1.049245849609375	-0.014615519523620606	0		-0.562136474609375	-2.23271142578125	0		1.106649169921875	-0.898542236328125	0		2.597759033203125	-0.10095513153076172	0		4.008374755859375	0.2760270080566406	0		5.57392041015625	0.27467593383789063	0		-0.19190280151367187	5.9445546875	0		
0.018929622650146485	0.00384295392036438	0		0.5183804321289063	-2.396544189453125	0		-1.0346171875	-0.013247552871704102	0		-0.5826032104492187	-2.233657470703125	0		0.9914452514648437	-0.8866369018554687	0		2.6080693359375	-0.11557489013671875	0		4.00797216796875	0.275609130859375	0		5.584140625	0.2508804168701172	0		-0.192196044921875	5.9442041015625	0		
0.0045933108329772945	0.005789545059204102	0		0.5101849670410157	-2.38572607421875	0		-1.03781689453125	-0.004504723072052002	0		-0.5219091186523438	-2.2291923828125	0		1.1130286865234376	-0.889406494140625	0		2.634041015625	-0.09846572875976563	0		4.012735595703125	0.2821269226074219	0		5.58612255859375	0.26389697265625	0		-0.19152378845214843	5.94185693359375	0		
0.018198482513427733	0.003205681085586548	0		0.4968875427246094	-2.3817802734375	0		-1.0503856201171875	-0.015558160781860352	0		-0.560319091796875	-2.230736572265625	0		1.1054688720703125	-0.899583984375	0		2.596615478515625	-0.10206539154052735	0		4.0004287109375	0.28402142333984376	0		5.57948046875	0.26702862548828127	0		-0.1927686309814453	5.94357275390625	0		
-0.007127532958984375	0.0034222190380096434	0		0.494499267578125	-2.384024169921875	0		-1.0507166748046874	-0.015830690383911133	0		-0.5267332153320312	-2.234688232421875	0		1.105131103515625	-0.8998726806640625	0		2.595363525390625	-0.09834626007080079	0		4.0071181640625	0.28457681274414065	0		5.575107421875	0.2839752502441406	0		-0.2072708740234375	5.93257421875	0		
-0.005603463172912598	-0.004871132850646972	0		0.5039927673339843	-2.393478515625	0		-1.051033203125	-0.01608187484741211	0		-0.5979844970703125	-2.230530029296875	0		0.9759759521484375	-0.8905679321289063	0		2.588769287109375	-0.11248922729492188	0		3.994626220703125	0.2755494689941406	0		5.57261474609375	0.2680340576171875	0		-0.20756472778320312	5.93231982421875	0		
-0.007752791881561279	0.002936506986618042	0		0.5166012573242188	-2.397966796875	0		-1.051342041015625	-0.01631218338012695	0		-0.5592617797851562	-2.22953662109375	0		1.1103817138671874	-0.9064810791015625	0		2.62361279296875	-0.10541806030273437	0		4.013313720703125	0.27494024658203126	0		5.57581787109375	0.2501643524169922	0		-0.19365615844726564	5.94280859375	0		
-0.008059641838073731	0.0027299070358276366	0		0.5085223999023437	-2.387014892578125	0		-1.0516488037109375	-0.01652212142944336	0		-0.5595614624023437	-2.229744873046875	0		1.1041982421875	-0.9005659790039062	0		2.579195556640625	-0.11074011993408203	0		4.000386474609375	0.2939990234375	0		5.57559912109375	0.24983723449707032	0		-0.19398200988769532	5.9426015625	0		
-0.0034687650203704835	-0.0025519490242004394	0		0.5051302795410156	-2.39213427734375	0		-1.01904345703125	-0.021367509841918944	0		-0.5279614868164062	-2.235567138671875	0		1.103895263671875	-0.9007422485351563	0		2.622998046875	-0.10578271484375	0		4.000737548828125	0.2768204040527344	0		5.57835986328125	0.2650103759765625	0		-0.19432908630371093	5.9424169921875	0		
-0.008681206703186036	0.0023851099014282227	0		0.49502093505859374	-2.383093994140625	0		-1.0622283935546875	-0.014685233116149903	0		-0.5730256958007812	-2.22384130859375	0		1.100531982421875	-0.9038328247070313	0		2.589712646484375	-0.104263671875	0		4.000422119140625	0.27669036865234375	0		5.574	0.28232382202148437	0		-0.20891392517089843	5.9315341796875	0		
-0.013057378768920899	-6.752740144729615E-4	0		0.4947326049804687	-2.383228271484375	0		-1.02373193359375	-0.024611116409301758	0		-0.5624769897460937	-2.23220556640625	0		1.1002257080078126	-0.903959716796875	0		2.599196044921875	-0.1145690155029297	0		4.007119873046875	0.2774510803222656	0		5.58204833984375	0.24719091796875	0		-0.2093035430908203	5.93139111328125	0		
-0.004419189929962158	-0.002974159002304077	0		0.4632547607421875	-2.392724365234375	0		-1.0529073486328124	-0.01717254066467285	0		-0.5837804565429687	-2.232917236328125	0		1.108857177734375	-0.9072421264648437	0		2.573862548828125	-0.1151552734375	0		3.999777099609375	0.27651803588867185	0		5.5747041015625	0.24919390869140626	0		-0.2087306671142578	5.930248046875	0		
